<?xml version="1.0" encoding="us-ascii" standalone="no"?><svg xmlns="http://www.w3.org/2000/svg" xmlns:xlink="http://www.w3.org/1999/xlink" contentStyleType="text/css" height="534px" preserveAspectRatio="none" style="width:1001px;height:534px;background:#FFFFFF;" version="1.1" viewBox="0 0 1001 534" width="1001px" zoomAndPan="magnify"><defs/><g><rect fill="#FFFFFF" height="350.3516" style="stroke:#181818;stroke-width:1.0;" width="10" x="36" y="92.6094"/><rect fill="#FFFFFF" height="274.6484" style="stroke:#181818;stroke-width:1.0;" width="10" x="215" y="159.3125"/><rect fill="#FFFFFF" height="230.2969" style="stroke:#181818;stroke-width:1.0;" width="10" x="371" y="189.6641"/><rect fill="#FFFFFF" height="116.4063" style="stroke:#181818;stroke-width:1.0;" width="10" x="688" y="220.0156"/><rect fill="#FFFFFF" height="132.2422" style="stroke:#181818;stroke-width:1.0;" width="10" x="940" y="250.3672"/><rect fill="none" height="125.2422" style="stroke:#000000;stroke-width:1.5;" width="669" x="315" y="265.3672"/><line style="stroke:#181818;stroke-width:0.5;stroke-dasharray:5.0,5.0;" x1="41" x2="41" y1="82.6094" y2="451.9609"/><line style="stroke:#181818;stroke-width:0.5;stroke-dasharray:5.0,5.0;" x1="219.5" x2="219.5" y1="82.6094" y2="451.9609"/><line style="stroke:#181818;stroke-width:0.5;stroke-dasharray:5.0,5.0;" x1="376" x2="376" y1="82.6094" y2="451.9609"/><line style="stroke:#181818;stroke-width:0.5;stroke-dasharray:5.0,5.0;" x1="692.5" x2="692.5" y1="82.6094" y2="451.9609"/><line style="stroke:#181818;stroke-width:0.5;stroke-dasharray:5.0,5.0;" x1="945" x2="945" y1="82.6094" y2="451.9609"/><text fill="#000000" font-family="sans-serif" font-size="14" lengthAdjust="spacing" textLength="66" x="5" y="79.5332">&#1054;&#1087;&#1077;&#1088;&#1072;&#1090;&#1086;&#1088;</text><ellipse cx="41" cy="13.5" fill="#E2E2F0" rx="8" ry="8" style="stroke:#181818;stroke-width:0.5;"/><path d="M41,21.5 L41,48.5 M28,29.5 L54,29.5 M41,48.5 L28,63.5 M41,48.5 L54,63.5 " fill="none" style="stroke:#181818;stroke-width:0.5;"/><text fill="#000000" font-family="sans-serif" font-size="14" lengthAdjust="spacing" textLength="66" x="5" y="465.4941">&#1054;&#1087;&#1077;&#1088;&#1072;&#1090;&#1086;&#1088;</text><ellipse cx="41" cy="477.0703" fill="#E2E2F0" rx="8" ry="8" style="stroke:#181818;stroke-width:0.5;"/><path d="M41,485.0703 L41,512.0703 M28,493.0703 L54,493.0703 M41,512.0703 L28,527.0703 M41,512.0703 L54,527.0703 " fill="none" style="stroke:#181818;stroke-width:0.5;"/><rect fill="#E2E2F0" height="31.6094" rx="2.5" ry="2.5" style="stroke:#181818;stroke-width:0.5;" width="105" x="167.5" y="50"/><text fill="#000000" font-family="sans-serif" font-size="14" lengthAdjust="spacing" textLength="91" x="174.5" y="71.5332">MES Frontend</text><rect fill="#E2E2F0" height="31.6094" rx="2.5" ry="2.5" style="stroke:#181818;stroke-width:0.5;" width="105" x="167.5" y="450.9609"/><text fill="#000000" font-family="sans-serif" font-size="14" lengthAdjust="spacing" textLength="91" x="174.5" y="472.4941">MES Frontend</text><rect fill="#E2E2F0" height="31.6094" rx="2.5" ry="2.5" style="stroke:#181818;stroke-width:0.5;" width="102" x="325" y="50"/><text fill="#000000" font-family="sans-serif" font-size="14" lengthAdjust="spacing" textLength="88" x="332" y="71.5332">MES Backend</text><rect fill="#E2E2F0" height="31.6094" rx="2.5" ry="2.5" style="stroke:#181818;stroke-width:0.5;" width="102" x="325" y="450.9609"/><text fill="#000000" font-family="sans-serif" font-size="14" lengthAdjust="spacing" textLength="88" x="332" y="472.4941">MES Backend</text><text fill="#000000" font-family="sans-serif" font-size="14" lengthAdjust="spacing" textLength="59" x="660.5" y="79.5332">Redis DB</text><path d="M675,29 C675,19 693,19 693,19 C693,19 711,19 711,29 L711,55 C711,65 693,65 693,65 C693,65 675,65 675,55 L675,29 " fill="#E2E2F0" style="stroke:#181818;stroke-width:1.5;"/><path d="M675,29 C675,39 693,39 693,39 C693,39 711,39 711,29 " fill="none" style="stroke:#181818;stroke-width:1.5;"/><text fill="#000000" font-family="sans-serif" font-size="14" lengthAdjust="spacing" textLength="59" x="660.5" y="465.4941">Redis DB</text><path d="M675,478.5703 C675,468.5703 693,468.5703 693,468.5703 C693,468.5703 711,468.5703 711,478.5703 L711,504.5703 C711,514.5703 693,514.5703 693,514.5703 C693,514.5703 675,514.5703 675,504.5703 L675,478.5703 " fill="#E2E2F0" style="stroke:#181818;stroke-width:1.5;"/><path d="M675,478.5703 C675,488.5703 693,488.5703 693,488.5703 C693,488.5703 711,488.5703 711,478.5703 " fill="none" style="stroke:#181818;stroke-width:1.5;"/><text fill="#000000" font-family="sans-serif" font-size="14" lengthAdjust="spacing" textLength="52" x="916" y="79.5332">MES DB</text><path d="M927,29 C927,19 945,19 945,19 C945,19 963,19 963,29 L963,55 C963,65 945,65 945,65 C945,65 927,65 927,55 L927,29 " fill="#E2E2F0" style="stroke:#181818;stroke-width:1.5;"/><path d="M927,29 C927,39 945,39 945,39 C945,39 963,39 963,29 " fill="none" style="stroke:#181818;stroke-width:1.5;"/><text fill="#000000" font-family="sans-serif" font-size="14" lengthAdjust="spacing" textLength="52" x="916" y="465.4941">MES DB</text><path d="M927,478.5703 C927,468.5703 945,468.5703 945,468.5703 C945,468.5703 963,468.5703 963,478.5703 L963,504.5703 C963,514.5703 945,514.5703 945,514.5703 C945,514.5703 927,514.5703 927,504.5703 L927,478.5703 " fill="#E2E2F0" style="stroke:#181818;stroke-width:1.5;"/><path d="M927,478.5703 C927,488.5703 945,488.5703 945,488.5703 C945,488.5703 963,488.5703 963,478.5703 " fill="none" style="stroke:#181818;stroke-width:1.5;"/><rect fill="#FFFFFF" height="350.3516" style="stroke:#181818;stroke-width:1.0;" width="10" x="36" y="92.6094"/><rect fill="#FFFFFF" height="274.6484" style="stroke:#181818;stroke-width:1.0;" width="10" x="215" y="159.3125"/><rect fill="#FFFFFF" height="230.2969" style="stroke:#181818;stroke-width:1.0;" width="10" x="371" y="189.6641"/><rect fill="#FFFFFF" height="116.4063" style="stroke:#181818;stroke-width:1.0;" width="10" x="688" y="220.0156"/><rect fill="#FFFFFF" height="132.2422" style="stroke:#181818;stroke-width:1.0;" width="10" x="940" y="250.3672"/><rect fill="#EEEEEE" height="3" style="stroke:#EEEEEE;stroke-width:1.0;" width="994" x="0" y="113.7852"/><line style="stroke:#000000;stroke-width:1.0;" x1="0" x2="994" y1="113.7852" y2="113.7852"/><line style="stroke:#000000;stroke-width:1.0;" x1="0" x2="994" y1="116.7852" y2="116.7852"/><rect fill="#EEEEEE" height="24.3516" style="stroke:#000000;stroke-width:2.0;" width="358" x="318" y="102.6094"/><text fill="#000000" font-family="sans-serif" font-size="13" font-weight="bold" lengthAdjust="spacing" textLength="340" x="324" y="120.1045">&#1047;&#1072;&#1087;&#1080;&#1089;&#1100; &#1086;&#1073; &#1080;&#1079;&#1084;&#1077;&#1085;&#1077;&#1085;&#1080;&#1080; &#1089;&#1090;&#1072;&#1090;&#1091;&#1089;&#1072; &#1079;&#1072;&#1082;&#1072;&#1079;&#1072;. Write through</text><polygon fill="#181818" points="203,155.3125,213,159.3125,203,163.3125,207,159.3125" style="stroke:#181818;stroke-width:1.0;"/><line style="stroke:#181818;stroke-width:1.0;" x1="46" x2="209" y1="159.3125" y2="159.3125"/><text fill="#000000" font-family="sans-serif" font-size="13" lengthAdjust="spacing" textLength="150" x="53" y="154.4561">&#1042;&#1085;&#1077;&#1089;&#1077;&#1085;&#1080;&#1077; &#1089;&#1090;&#1072;&#1090;&#1091;&#1089;&#1072; &#1079;&#1072;&#1082;&#1072;&#1079;&#1072;</text><polygon fill="#181818" points="359,185.6641,369,189.6641,359,193.6641,363,189.6641" style="stroke:#181818;stroke-width:1.0;"/><line style="stroke:#181818;stroke-width:1.0;" x1="225" x2="365" y1="189.6641" y2="189.6641"/><text fill="#000000" font-family="sans-serif" font-size="13" lengthAdjust="spacing" textLength="127" x="232" y="184.8076">PUT /orders/{order_id}</text><polygon fill="#181818" points="676,216.0156,686,220.0156,676,224.0156,680,220.0156" style="stroke:#181818;stroke-width:1.0;"/><line style="stroke:#181818;stroke-width:1.0;" x1="381" x2="682" y1="220.0156" y2="220.0156"/><text fill="#000000" font-family="sans-serif" font-size="13" lengthAdjust="spacing" textLength="210" x="388" y="215.1592">&#1055;&#1088;&#1086;&#1082;&#1089;&#1080;&#1088;&#1086;&#1074;&#1072;&#1085;&#1080;&#1077; &#1076;&#1072;&#1085;&#1085;&#1099;&#1093; &#1073;&#1077;&#1079; &#1079;&#1072;&#1087;&#1080;&#1089;&#1080;</text><polygon fill="#181818" points="928,246.3672,938,250.3672,928,254.3672,932,250.3672" style="stroke:#181818;stroke-width:1.0;"/><line style="stroke:#181818;stroke-width:1.0;" x1="698" x2="934" y1="250.3672" y2="250.3672"/><text fill="#000000" font-family="sans-serif" font-size="13" lengthAdjust="spacing" textLength="223" x="705" y="245.5107">&#1054;&#1073;&#1085;&#1086;&#1074;&#1083;&#1077;&#1085;&#1080;&#1077; &#1089;&#1090;&#1072;&#1090;&#1091;&#1089;&#1072; &#1074; &#1041;&#1044; &#1087;&#1086; order_id</text><path d="M315,265.3672 L376,265.3672 L376,273.7188 L366,283.7188 L315,283.7188 L315,265.3672 " fill="#EEEEEE" style="stroke:#000000;stroke-width:1.5;"/><rect fill="none" height="125.2422" style="stroke:#000000;stroke-width:1.5;" width="669" x="315" y="265.3672"/><text fill="#000000" font-family="sans-serif" font-size="13" font-weight="bold" lengthAdjust="spacing" textLength="16" x="330" y="279.8623">alt</text><text fill="#000000" font-family="sans-serif" font-size="11" font-weight="bold" lengthAdjust="spacing" textLength="221" x="391" y="278.7861">[&#1054;&#1073;&#1085;&#1086;&#1074;&#1083;&#1077;&#1085;&#1080;&#1077; &#1089;&#1090;&#1072;&#1090;&#1091;&#1089;&#1072; &#1087;&#1088;&#1086;&#1096;&#1083;&#1086; &#1091;&#1089;&#1087;&#1077;&#1096;&#1085;&#1086;]</text><polygon fill="#181818" points="709,302.0703,699,306.0703,709,310.0703,705,306.0703" style="stroke:#181818;stroke-width:1.0;"/><line style="stroke:#181818;stroke-width:1.0;" x1="703" x2="939" y1="306.0703" y2="306.0703"/><text fill="#000000" font-family="sans-serif" font-size="13" lengthAdjust="spacing" textLength="155" x="715" y="301.2139">&#1057;&#1086;&#1093;&#1088;&#1072;&#1085;&#1103;&#1077;&#1084; &#1076;&#1072;&#1085;&#1085;&#1099;&#1077; &#1074; &#1082;&#1077;&#1096;</text><polygon fill="#181818" points="392,332.4219,382,336.4219,392,340.4219,388,336.4219" style="stroke:#181818;stroke-width:1.0;"/><line style="stroke:#181818;stroke-width:1.0;" x1="386" x2="692" y1="336.4219" y2="336.4219"/><text fill="#000000" font-family="sans-serif" font-size="13" lengthAdjust="spacing" textLength="283" x="398" y="331.5654">&#1055;&#1077;&#1088;&#1077;&#1076;&#1072;&#1095;&#1072; &#1082;&#1077;&#1096;&#1072;\&#1086;&#1073;&#1085;&#1086;&#1074;&#1083;&#1077;&#1085;&#1085;&#1099;&#1093; &#1076;&#1072;&#1085;&#1085;&#1099;&#1093; &#1074; &#1073;&#1077;&#1082;&#1077;&#1085;&#1076;</text><line style="stroke:#000000;stroke-width:1.0;stroke-dasharray:2.0,2.0;" x1="315" x2="984" y1="345.4219" y2="345.4219"/><text fill="#000000" font-family="sans-serif" font-size="11" font-weight="bold" lengthAdjust="spacing" textLength="238" x="320" y="356.8408">[&#1054;&#1073;&#1085;&#1086;&#1074;&#1083;&#1077;&#1085;&#1080;&#1077; &#1089;&#1090;&#1072;&#1090;&#1091;&#1089;&#1072; &#1085;&#1077; &#1087;&#1088;&#1086;&#1096;&#1083;&#1086; &#1091;&#1089;&#1087;&#1077;&#1096;&#1085;&#1086;]</text><polygon fill="#181818" points="392,378.6094,382,382.6094,392,386.6094,388,382.6094" style="stroke:#181818;stroke-width:1.0;"/><line style="stroke:#181818;stroke-width:1.0;" x1="386" x2="944" y1="382.6094" y2="382.6094"/><text fill="#000000" font-family="sans-serif" font-size="13" lengthAdjust="spacing" textLength="48" x="398" y="377.7529">&#1054;&#1096;&#1080;&#1073;&#1082;&#1072;</text><polygon fill="#181818" points="236,415.9609,226,419.9609,236,423.9609,232,419.9609" style="stroke:#181818;stroke-width:1.0;"/><line style="stroke:#181818;stroke-width:1.0;" x1="230" x2="375" y1="419.9609" y2="419.9609"/><text fill="#000000" font-family="sans-serif" font-size="13" lengthAdjust="spacing" textLength="110" x="242" y="415.1045">&#1088;&#1077;&#1079;&#1091;&#1083;&#1100;&#1090;&#1072;&#1090; &#1079;&#1072;&#1087;&#1088;&#1086;&#1089;&#1072;</text><polygon fill="#181818" points="57,429.9609,47,433.9609,57,437.9609,53,433.9609" style="stroke:#181818;stroke-width:1.0;"/><line style="stroke:#181818;stroke-width:1.0;" x1="51" x2="219" y1="433.9609" y2="433.9609"/><!--SRC=[ZLDDIyD04BtlhnXwBR5teHwAUXF43xm8PTj46zIcR5Ol8hIAA2Y88dYh-0_IOcdeH_eNPl-HCvkcjehIGiWcy-RDUvDNMTM1WXosSO8zqyJ8N6DYcZcG8GGDJqagYuPKsg_w3LdNaDlQs8LD5TIrLtSjxCmBoqVyuZUk9Aidyx0AFGjNQbcHeGUv7S_rGrWlsRhYXx9RcQipnRJAtLGJnIA-OKHYOzCoZu09TW1ZxEC8UpYsLumnKF6QlPWRqy88g1xXW2wwhy21yhK7kgQ2y-CQ58j2LhL_8UdTp75s06Vjsry-lmhumbE8D9tK-s-Ic7LcDEoVMRRtzw0GADTJOU7Itik-UoKo2CEpTTYXx_Hb4XpGXDYUkZGW7O-VzZWs3-OMi4Eo-ga6ko6CHSQJIPWojWaxjap3Fwrq0P_n5OWgWKma225FzNBz4zPgxWcHW7t74RldDW7qIzNCUoLT7zHnopaaIq_4F9fpo7P9qu1PBCDFRxmxn-5zsIptkDNSiHJRWz4XvsL1ztHn2rlifeiSMC2dy4ufYqiP7hF2fLqlA6uJ9AOH51r1_nYna8LPZXXgZVND3GxDOpf- -i7jtDRFs6L9TXpn1G00]--></g></svg>