<?xml version="1.0" encoding="us-ascii" standalone="no"?><svg xmlns="http://www.w3.org/2000/svg" xmlns:xlink="http://www.w3.org/1999/xlink" contentStyleType="text/css" height="611px" preserveAspectRatio="none" style="width:914px;height:611px;background:#FFFFFF;" version="1.1" viewBox="0 0 914 611" width="914px" zoomAndPan="magnify"><defs/><g><rect fill="#FFFFFF" height="427.4063" style="stroke:#181818;stroke-width:1.0;" width="10" x="36" y="92.6094"/><rect fill="#FFFFFF" height="360.7031" style="stroke:#181818;stroke-width:1.0;" width="10" x="304" y="159.3125"/><rect fill="#FFFFFF" height="116.4063" style="stroke:#181818;stroke-width:1.0;" width="10" x="549" y="189.6641"/><rect fill="#FFFFFF" height="300" style="stroke:#181818;stroke-width:1.0;" width="10" x="782" y="220.0156"/><rect fill="#FFFFFF" height="30.3516" style="stroke:#181818;stroke-width:1.0;" width="10" x="853.5" y="382.6094"/><rect fill="none" height="246.6484" style="stroke:#000000;stroke-width:1.5;" width="651" x="246.5" y="235.0156"/><line style="stroke:#181818;stroke-width:0.5;stroke-dasharray:5.0,5.0;" x1="41" x2="41" y1="82.6094" y2="529.0156"/><line style="stroke:#181818;stroke-width:0.5;stroke-dasharray:5.0,5.0;" x1="308.5" x2="308.5" y1="82.6094" y2="529.0156"/><line style="stroke:#181818;stroke-width:0.5;stroke-dasharray:5.0,5.0;" x1="554" x2="554" y1="82.6094" y2="529.0156"/><line style="stroke:#181818;stroke-width:0.5;stroke-dasharray:5.0,5.0;" x1="786.5" x2="786.5" y1="82.6094" y2="529.0156"/><line style="stroke:#181818;stroke-width:0.5;stroke-dasharray:5.0,5.0;" x1="858.5" x2="858.5" y1="82.6094" y2="529.0156"/><text fill="#000000" font-family="sans-serif" font-size="14" lengthAdjust="spacing" textLength="66" x="5" y="79.5332">&#1054;&#1087;&#1077;&#1088;&#1072;&#1090;&#1086;&#1088;</text><ellipse cx="41" cy="13.5" fill="#E2E2F0" rx="8" ry="8" style="stroke:#181818;stroke-width:0.5;"/><path d="M41,21.5 L41,48.5 M28,29.5 L54,29.5 M41,48.5 L28,63.5 M41,48.5 L54,63.5 " fill="none" style="stroke:#181818;stroke-width:0.5;"/><text fill="#000000" font-family="sans-serif" font-size="14" lengthAdjust="spacing" textLength="66" x="5" y="542.5488">&#1054;&#1087;&#1077;&#1088;&#1072;&#1090;&#1086;&#1088;</text><ellipse cx="41" cy="554.125" fill="#E2E2F0" rx="8" ry="8" style="stroke:#181818;stroke-width:0.5;"/><path d="M41,562.125 L41,589.125 M28,570.125 L54,570.125 M41,589.125 L28,604.125 M41,589.125 L54,604.125 " fill="none" style="stroke:#181818;stroke-width:0.5;"/><rect fill="#E2E2F0" height="31.6094" rx="2.5" ry="2.5" style="stroke:#181818;stroke-width:0.5;" width="105" x="256.5" y="50"/><text fill="#000000" font-family="sans-serif" font-size="14" lengthAdjust="spacing" textLength="91" x="263.5" y="71.5332">MES Frontend</text><rect fill="#E2E2F0" height="31.6094" rx="2.5" ry="2.5" style="stroke:#181818;stroke-width:0.5;" width="105" x="256.5" y="528.0156"/><text fill="#000000" font-family="sans-serif" font-size="14" lengthAdjust="spacing" textLength="91" x="263.5" y="549.5488">MES Frontend</text><rect fill="#E2E2F0" height="31.6094" rx="2.5" ry="2.5" style="stroke:#181818;stroke-width:0.5;" width="102" x="503" y="50"/><text fill="#000000" font-family="sans-serif" font-size="14" lengthAdjust="spacing" textLength="88" x="510" y="71.5332">MES Backend</text><rect fill="#E2E2F0" height="31.6094" rx="2.5" ry="2.5" style="stroke:#181818;stroke-width:0.5;" width="102" x="503" y="528.0156"/><text fill="#000000" font-family="sans-serif" font-size="14" lengthAdjust="spacing" textLength="88" x="510" y="549.5488">MES Backend</text><text fill="#000000" font-family="sans-serif" font-size="14" lengthAdjust="spacing" textLength="59" x="754.5" y="79.5332">Redis DB</text><path d="M769,29 C769,19 787,19 787,19 C787,19 805,19 805,29 L805,55 C805,65 787,65 787,65 C787,65 769,65 769,55 L769,29 " fill="#E2E2F0" style="stroke:#181818;stroke-width:1.5;"/><path d="M769,29 C769,39 787,39 787,39 C787,39 805,39 805,29 " fill="none" style="stroke:#181818;stroke-width:1.5;"/><text fill="#000000" font-family="sans-serif" font-size="14" lengthAdjust="spacing" textLength="59" x="754.5" y="542.5488">Redis DB</text><path d="M769,555.625 C769,545.625 787,545.625 787,545.625 C787,545.625 805,545.625 805,555.625 L805,581.625 C805,591.625 787,591.625 787,591.625 C787,591.625 769,591.625 769,581.625 L769,555.625 " fill="#E2E2F0" style="stroke:#181818;stroke-width:1.5;"/><path d="M769,555.625 C769,565.625 787,565.625 787,565.625 C787,565.625 805,565.625 805,555.625 " fill="none" style="stroke:#181818;stroke-width:1.5;"/><text fill="#000000" font-family="sans-serif" font-size="14" lengthAdjust="spacing" textLength="52" x="829.5" y="79.5332">MES DB</text><path d="M840.5,29 C840.5,19 858.5,19 858.5,19 C858.5,19 876.5,19 876.5,29 L876.5,55 C876.5,65 858.5,65 858.5,65 C858.5,65 840.5,65 840.5,55 L840.5,29 " fill="#E2E2F0" style="stroke:#181818;stroke-width:1.5;"/><path d="M840.5,29 C840.5,39 858.5,39 858.5,39 C858.5,39 876.5,39 876.5,29 " fill="none" style="stroke:#181818;stroke-width:1.5;"/><text fill="#000000" font-family="sans-serif" font-size="14" lengthAdjust="spacing" textLength="52" x="829.5" y="542.5488">MES DB</text><path d="M840.5,555.625 C840.5,545.625 858.5,545.625 858.5,545.625 C858.5,545.625 876.5,545.625 876.5,555.625 L876.5,581.625 C876.5,591.625 858.5,591.625 858.5,591.625 C858.5,591.625 840.5,591.625 840.5,581.625 L840.5,555.625 " fill="#E2E2F0" style="stroke:#181818;stroke-width:1.5;"/><path d="M840.5,555.625 C840.5,565.625 858.5,565.625 858.5,565.625 C858.5,565.625 876.5,565.625 876.5,555.625 " fill="none" style="stroke:#181818;stroke-width:1.5;"/><rect fill="#FFFFFF" height="427.4063" style="stroke:#181818;stroke-width:1.0;" width="10" x="36" y="92.6094"/><rect fill="#FFFFFF" height="360.7031" style="stroke:#181818;stroke-width:1.0;" width="10" x="304" y="159.3125"/><rect fill="#FFFFFF" height="116.4063" style="stroke:#181818;stroke-width:1.0;" width="10" x="549" y="189.6641"/><rect fill="#FFFFFF" height="300" style="stroke:#181818;stroke-width:1.0;" width="10" x="782" y="220.0156"/><rect fill="#FFFFFF" height="30.3516" style="stroke:#181818;stroke-width:1.0;" width="10" x="853.5" y="382.6094"/><rect fill="#EEEEEE" height="3" style="stroke:#EEEEEE;stroke-width:1.0;" width="907.5" x="0" y="113.7852"/><line style="stroke:#000000;stroke-width:1.0;" x1="0" x2="907.5" y1="113.7852" y2="113.7852"/><line style="stroke:#000000;stroke-width:1.0;" x1="0" x2="907.5" y1="116.7852" y2="116.7852"/><rect fill="#EEEEEE" height="24.3516" style="stroke:#000000;stroke-width:2.0;" width="409" x="249.25" y="102.6094"/><text fill="#000000" font-family="sans-serif" font-size="13" font-weight="bold" lengthAdjust="spacing" textLength="395" x="255.25" y="120.1045">&#1054;&#1087;&#1077;&#1088;&#1072;&#1094;&#1080;&#1103; &#1095;&#1090;&#1077;&#1085;&#1080;&#1103; &#1089;&#1087;&#1080;&#1089;&#1082;&#1072; &#1079;&#1072;&#1082;&#1072;&#1079;&#1086;&#1074;. Read Aside &#1082;&#1077;&#1096;&#1080;&#1088;&#1086;&#1074;&#1072;&#1085;&#1080;&#1077;</text><polygon fill="#181818" points="292,155.3125,302,159.3125,292,163.3125,296,159.3125" style="stroke:#181818;stroke-width:1.0;"/><line style="stroke:#181818;stroke-width:1.0;" x1="46" x2="298" y1="159.3125" y2="159.3125"/><text fill="#000000" font-family="sans-serif" font-size="13" lengthAdjust="spacing" textLength="233" x="53" y="154.4561">&#1047;&#1072;&#1087;&#1088;&#1086;&#1089; &#1076;&#1072;&#1085;&#1085;&#1099;&#1093; &#1086; &#1079;&#1072;&#1082;&#1072;&#1079;&#1077; &#1089;&#1086; &#1089;&#1090;&#1086;&#1088;&#1086;&#1085;&#1099; UI</text><polygon fill="#181818" points="537,185.6641,547,189.6641,537,193.6641,541,189.6641" style="stroke:#181818;stroke-width:1.0;"/><line style="stroke:#181818;stroke-width:1.0;" x1="314" x2="543" y1="189.6641" y2="189.6641"/><text fill="#000000" font-family="sans-serif" font-size="13" lengthAdjust="spacing" textLength="70" x="321" y="184.8076">GET /orders</text><polygon fill="#181818" points="770,216.0156,780,220.0156,770,224.0156,774,220.0156" style="stroke:#181818;stroke-width:1.0;"/><line style="stroke:#181818;stroke-width:1.0;" x1="559" x2="776" y1="220.0156" y2="220.0156"/><text fill="#000000" font-family="sans-serif" font-size="13" lengthAdjust="spacing" textLength="162" x="566" y="215.1592">&#1055;&#1088;&#1086;&#1074;&#1077;&#1088;&#1082;&#1072; &#1082;&#1077;&#1096;&#1072; &#1087;&#1086; &#1079;&#1072;&#1082;&#1072;&#1079;&#1072;&#1084;</text><path d="M246.5,235.0156 L307.5,235.0156 L307.5,243.3672 L297.5,253.3672 L246.5,253.3672 L246.5,235.0156 " fill="#EEEEEE" style="stroke:#000000;stroke-width:1.5;"/><rect fill="none" height="246.6484" style="stroke:#000000;stroke-width:1.5;" width="651" x="246.5" y="235.0156"/><text fill="#000000" font-family="sans-serif" font-size="13" font-weight="bold" lengthAdjust="spacing" textLength="16" x="261.5" y="249.5107">alt</text><text fill="#000000" font-family="sans-serif" font-size="11" font-weight="bold" lengthAdjust="spacing" textLength="167" x="322.5" y="248.4346">[&#1055;&#1088;&#1086;&#1074;&#1077;&#1088;&#1082;&#1072; &#1082;&#1077;&#1096;&#1072;. &#1050;&#1077;&#1096; &#1085;&#1072;&#1081;&#1076;&#1077;&#1085;]</text><polygon fill="#181818" points="570,271.7188,560,275.7188,570,279.7188,566,275.7188" style="stroke:#181818;stroke-width:1.0;"/><line style="stroke:#181818;stroke-width:1.0;" x1="564" x2="781" y1="275.7188" y2="275.7188"/><text fill="#000000" font-family="sans-serif" font-size="13" lengthAdjust="spacing" textLength="94" x="576" y="270.8623">&#1055;&#1077;&#1088;&#1077;&#1076;&#1072;&#1095;&#1072; &#1082;&#1077;&#1096;&#1072;</text><polygon fill="#181818" points="325,302.0703,315,306.0703,325,310.0703,321,306.0703" style="stroke:#181818;stroke-width:1.0;"/><line style="stroke:#181818;stroke-width:1.0;" x1="319" x2="553" y1="306.0703" y2="306.0703"/><text fill="#000000" font-family="sans-serif" font-size="13" lengthAdjust="spacing" textLength="198" x="331" y="301.2139">&#1054;&#1090;&#1086;&#1073;&#1088;&#1072;&#1078;&#1077;&#1085;&#1080;&#1077; &#1079;&#1072;&#1082;&#1072;&#1079;&#1086;&#1074; &#1085;&#1072; &#1082;&#1083;&#1080;&#1077;&#1085;&#1090;&#1077;</text><line style="stroke:#000000;stroke-width:1.0;stroke-dasharray:2.0,2.0;" x1="246.5" x2="897.5" y1="315.0703" y2="315.0703"/><text fill="#000000" font-family="sans-serif" font-size="11" font-weight="bold" lengthAdjust="spacing" textLength="184" x="251.5" y="326.4893">[&#1055;&#1088;&#1086;&#1074;&#1077;&#1088;&#1082;&#1072; &#1082;&#1077;&#1096;&#1072;. &#1050;&#1077;&#1096; &#1085;&#1077; &#1085;&#1072;&#1081;&#1076;&#1077;&#1085;]</text><polygon fill="#181818" points="565,348.2578,555,352.2578,565,356.2578,561,352.2578" style="stroke:#181818;stroke-width:1.0;"/><line style="stroke:#181818;stroke-width:1.0;" x1="559" x2="781" y1="352.2578" y2="352.2578"/><text fill="#000000" font-family="sans-serif" font-size="13" lengthAdjust="spacing" textLength="91" x="571" y="347.4014">&#1050;&#1077;&#1096; &#1085;&#1077; &#1085;&#1072;&#1081;&#1076;&#1077;&#1085;</text><polygon fill="#181818" points="841.5,378.6094,851.5,382.6094,841.5,386.6094,845.5,382.6094" style="stroke:#181818;stroke-width:1.0;"/><line style="stroke:#181818;stroke-width:1.0;" x1="554" x2="847.5" y1="382.6094" y2="382.6094"/><text fill="#000000" font-family="sans-serif" font-size="13" lengthAdjust="spacing" textLength="172" x="561" y="377.7529">&#1050;&#1077;&#1096; &#1085;&#1077; &#1085;&#1072;&#1081;&#1076;&#1077;&#1085;, &#1079;&#1072;&#1087;&#1088;&#1086;&#1089; &#1082; &#1041;&#1044;</text><polygon fill="#181818" points="565,408.9609,555,412.9609,565,416.9609,561,412.9609" style="stroke:#181818;stroke-width:1.0;"/><line style="stroke:#181818;stroke-width:1.0;" x1="559" x2="857.5" y1="412.9609" y2="412.9609"/><text fill="#000000" font-family="sans-serif" font-size="13" lengthAdjust="spacing" textLength="116" x="571" y="408.1045">&#1044;&#1072;&#1085;&#1085;&#1099;&#1077; &#1087;&#1086; &#1079;&#1072;&#1082;&#1072;&#1079;&#1072;&#1084;</text><polygon fill="#181818" points="325,439.3125,315,443.3125,325,447.3125,321,443.3125" style="stroke:#181818;stroke-width:1.0;"/><line style="stroke:#181818;stroke-width:1.0;" x1="319" x2="553" y1="443.3125" y2="443.3125"/><text fill="#000000" font-family="sans-serif" font-size="13" lengthAdjust="spacing" textLength="216" x="331" y="438.4561">&#1054;&#1090;&#1087;&#1088;&#1072;&#1074;&#1082;&#1072; &#1076;&#1072;&#1085;&#1085;&#1099;&#1093; &#1087;&#1086; &#1079;&#1072;&#1082;&#1072;&#1079;&#1091; &#1082;&#1083;&#1080;&#1077;&#1085;&#1090;&#1091;</text><polygon fill="#181818" points="770,469.6641,780,473.6641,770,477.6641,774,473.6641" style="stroke:#181818;stroke-width:1.0;"/><line style="stroke:#181818;stroke-width:1.0;" x1="554" x2="776" y1="473.6641" y2="473.6641"/><text fill="#000000" font-family="sans-serif" font-size="13" lengthAdjust="spacing" textLength="204" x="561" y="468.8076">&#1047;&#1072;&#1087;&#1080;&#1089;&#1100; &#1072;&#1082;&#1090;&#1091;&#1072;&#1083;&#1100;&#1085;&#1099;&#1093; &#1076;&#1072;&#1085;&#1085;&#1099;&#1093; &#1074; &#1082;&#1077;&#1096;</text><polygon fill="#181818" points="57,507.0156,47,511.0156,57,515.0156,53,511.0156" style="stroke:#181818;stroke-width:1.0;"/><line style="stroke:#181818;stroke-width:1.0;" x1="51" x2="303" y1="511.0156" y2="511.0156"/><text fill="#000000" font-family="sans-serif" font-size="13" lengthAdjust="spacing" textLength="234" x="63" y="506.1592">&#1055;&#1077;&#1088;&#1077;&#1076;&#1072;&#1095;&#1072; &#1076;&#1072;&#1085;&#1085;&#1099;&#1093; &#1086; &#1079;&#1072;&#1082;&#1072;&#1079;&#1072;&#1093; &#1086;&#1087;&#1077;&#1088;&#1072;&#1090;&#1086;&#1088;&#1091;</text><!--SRC=[ZLJDIiD04BxlKmozrkfTgA3uWmSlLS-oRLO8QbEIuBcr-0CA8WY21ts5M8nMQzjNc7qZPpRPDgjMcaEokpFppNpVp4OsuY244ZxX65FTnaIVuKYtIo0Z25egb6GMBHd6ViDloMOCfPsDNTWCWsQicfvnEr7HmI4V_FPRausZebkTziAJiQpBI46ffZm_WlKrOmzvS-3L2tQ6oAqSJJOXgjL2hHVOrxUWBwde58VPfaFMFhq_CG5ynuGNz1rXRn5gIdgm6lcU0ZfEzHLvjjb4BXIEQRKgX6p4_gcCrPI_NK1bPSgsN5u6VA30CKFe3k2hGHdgQtqEE2ecJxci4RqoTIaZUS7-jfYWMMXMY96tDlPWAGWz5KR2dhEFLSbaVywBPp4CtOmJBSPk_WI_YDTnF3ja4V2HLq0C4lmWBYIe07fincA5dDj0f4nQNnQ0J4onuWd5IeN2dbW1VE7kuLlMD5B7xPEfWG47R2IfgBj27TD4p5L-EZU7_q9-KiWbdn6oa56OZC8du1tUJu3Sp4Q8UpiiZFH7ksRAc8iuDXBsCXMSoNF1TDTHKdT_8Ljnx3ZpxT4tm03iJz-1lh7WJgPUhh-WEoxSMRPNvgz9cNrF4dFY_egeucy0]--></g></svg>